# Made in Blockbench 4.2.5
mtllib SpaceShipInternal.mtl

o Sol
v 0 0 0
v 0 0.0625 0
v 0 0 1.5625
v 0 0.0625 1.5625
v 1.3531646934131853 0 0.7812500000000002
v 1.3531646934131853 0.0625 0.7812500000000002
v 1.3531646934131856 0 -0.7812499999999997
v 1.3531646934131856 0.0625 -0.7812499999999997
v 1.9135106236677394e-16 0 -1.5625
v 1.9135106236677394e-16 0.0625 -1.5625
v -1.3531646934131851 0 -0.7812500000000007
v -1.3531646934131851 0.0625 -0.7812500000000007
v -1.3531646934131853 0 0.7812500000000002
v -1.3531646934131853 0.0625 0.7812500000000002
vt 0.338290625 0.90234375
vt 0.1691453125 1
vt 0.1691453125 0.8046875
vt 0.2265625 0.96875
vt 0.421875 0.96875
vt 0.421875 0.9765625
vt 0.2265625 0.9765625
vt 0.4269578125 0.3515625
vt 0.596103125 0.44921875
vt 0.4269578125 0.546875
vt 0.338290625 0.70703125
vt 0.338290625 0.90234375
vt 0.1691453125 0.8046875
vt 0.203125 0.984375
vt 0.3984375 0.984375
vt 0.3984375 0.9921875
vt 0.203125 0.9921875
vt 0.596103125 0.44921875
vt 0.596103125 0.64453125
vt 0.4269578125 0.546875
vt 0.1691453125 0.609375
vt 0.338290625 0.70703125
vt 0.1691453125 0.8046875
vt 0.2578125 0.953125
vt 0.453125 0.953125
vt 0.453125 0.9609375
vt 0.2578125 0.9609375
vt 0.596103125 0.64453125
vt 0.4269578125 0.7421875
vt 0.4269578125 0.546875
vt 0 0.70703125
vt 0.1691453125 0.609375
vt 0.1691453125 0.8046875
vt 0.2109375 0.9765625
vt 0.40625 0.9765625
vt 0.40625 0.984375
vt 0.2109375 0.984375
vt 0.4269578125 0.7421875
vt 0.2578125 0.64453125
vt 0.4269578125 0.546875
vt 0 0.90234375
vt 0 0.70703125
vt 0.1691453125 0.8046875
vt 0.1875 0.9921875
vt 0.3828125 0.9921875
vt 0.3828125 1
vt 0.1875 1
vt 0.2578125 0.64453125
vt 0.2578125 0.44921875
vt 0.4269578125 0.546875
vt 0.1691453125 1
vt 0 0.90234375
vt 0.1691453125 0.8046875
vt 0.2421875 0.9609375
vt 0.4375 0.9609375
vt 0.4375 0.96875
vt 0.2421875 0.96875
vt 0.2578125 0.44921875
vt 0.4269578125 0.3515625
vt 0.4269578125 0.546875
vn 0 -1 0
vn 0.49999999999999994 0 0.8660254037844387
vn 0 1 0
vn 0 -1 0
vn 1 0 1.4210854715202004e-16
vn 0 1 0
vn 0 -1 0
vn 0.5000000000000002 0 -0.8660254037844387
vn 0 1 0
vn 0 -1 0
vn -0.4999999999999998 0 -0.8660254037844389
vn 0 1 0
vn 0 -1 0
vn -1 0 -1.4210854715201997e-16
vn 0 1 0
vn 0 -1 0
vn -0.49999999999999994 0 0.8660254037844387
vn 0 1 0
usemtl m_0
f 5/1/1 3/2/1 1/3/1
f 3/4/2 5/5/2 6/6/2 4/7/2
f 4/8/3 6/9/3 2/10/3
f 7/11/4 5/12/4 1/13/4
f 5/14/5 7/15/5 8/16/5 6/17/5
f 6/18/6 8/19/6 2/20/6
f 9/21/7 7/22/7 1/23/7
f 7/24/8 9/25/8 10/26/8 8/27/8
f 8/28/9 10/29/9 2/30/9
f 11/31/10 9/32/10 1/33/10
f 9/34/11 11/35/11 12/36/11 10/37/11
f 10/38/12 12/39/12 2/40/12
f 13/41/13 11/42/13 1/43/13
f 11/44/14 13/45/14 14/46/14 12/47/14
f 12/48/15 14/49/15 2/50/15
f 3/51/16 13/52/16 1/53/16
f 13/54/17 3/55/17 4/56/17 14/57/17
f 14/58/18 4/59/18 2/60/18
o Plafond
v 0 0.671875 0
v 0 0.734375 0
v 0 0.671875 1.5625
v 0 0.734375 1.5625
v 1.3531646934131853 0.671875 0.7812500000000002
v 1.3531646934131853 0.734375 0.7812500000000002
v 1.3531646934131856 0.671875 -0.7812499999999997
v 1.3531646934131856 0.734375 -0.7812499999999997
v 1.9135106236677394e-16 0.671875 -1.5625
v 1.9135106236677394e-16 0.734375 -1.5625
v -1.3531646934131851 0.671875 -0.7812500000000007
v -1.3531646934131851 0.734375 -0.7812500000000007
v -1.3531646934131853 0.671875 0.7812500000000002
v -1.3531646934131853 0.734375 0.7812500000000002
vt 0.338290625 0.90234375
vt 0.1691453125 1
vt 0.1691453125 0.8046875
vt 0.2265625 0.96875
vt 0.421875 0.96875
vt 0.421875 0.9765625
vt 0.2265625 0.9765625
vt 0.4269578125 0.3515625
vt 0.596103125 0.44921875
vt 0.4269578125 0.546875
vt 0.338290625 0.70703125
vt 0.338290625 0.90234375
vt 0.1691453125 0.8046875
vt 0.203125 0.984375
vt 0.3984375 0.984375
vt 0.3984375 0.9921875
vt 0.203125 0.9921875
vt 0.596103125 0.44921875
vt 0.596103125 0.64453125
vt 0.4269578125 0.546875
vt 0.1691453125 0.609375
vt 0.338290625 0.70703125
vt 0.1691453125 0.8046875
vt 0.2578125 0.953125
vt 0.453125 0.953125
vt 0.453125 0.9609375
vt 0.2578125 0.9609375
vt 0.596103125 0.64453125
vt 0.4269578125 0.7421875
vt 0.4269578125 0.546875
vt 0 0.70703125
vt 0.1691453125 0.609375
vt 0.1691453125 0.8046875
vt 0.2109375 0.9765625
vt 0.40625 0.9765625
vt 0.40625 0.984375
vt 0.2109375 0.984375
vt 0.4269578125 0.7421875
vt 0.2578125 0.64453125
vt 0.4269578125 0.546875
vt 0 0.90234375
vt 0 0.70703125
vt 0.1691453125 0.8046875
vt 0.1875 0.9921875
vt 0.3828125 0.9921875
vt 0.3828125 1
vt 0.1875 1
vt 0.2578125 0.64453125
vt 0.2578125 0.44921875
vt 0.4269578125 0.546875
vt 0.1691453125 1
vt 0 0.90234375
vt 0.1691453125 0.8046875
vt 0.2421875 0.9609375
vt 0.4375 0.9609375
vt 0.4375 0.96875
vt 0.2421875 0.96875
vt 0.2578125 0.44921875
vt 0.4269578125 0.3515625
vt 0.4269578125 0.546875
vn 0 -1 0
vn 0.49999999999999994 0 0.8660254037844387
vn 0 1 0
vn 0 -1 0
vn 1 0 1.4210854715202004e-16
vn 0 1 0
vn 0 -1 0
vn 0.5000000000000002 0 -0.8660254037844387
vn 0 1 0
vn 0 -1 0
vn -0.4999999999999998 0 -0.8660254037844389
vn 0 1 0
vn 0 -1 0
vn -1 0 -1.4210854715201997e-16
vn 0 1 0
vn 0 -1 0
vn -0.49999999999999994 0 0.8660254037844387
vn 0 1 0
usemtl m_6
f 19/61/19 17/62/19 15/63/19
f 17/64/20 19/65/20 20/66/20 18/67/20
f 18/68/21 20/69/21 16/70/21
f 21/71/22 19/72/22 15/73/22
f 19/74/23 21/75/23 22/76/23 20/77/23
f 20/78/24 22/79/24 16/80/24
f 23/81/25 21/82/25 15/83/25
f 21/84/26 23/85/26 24/86/26 22/87/26
f 22/88/27 24/89/27 16/90/27
f 25/91/28 23/92/28 15/93/28
f 23/94/29 25/95/29 26/96/29 24/97/29
f 24/98/30 26/99/30 16/100/30
f 27/101/31 25/102/31 15/103/31
f 25/104/32 27/105/32 28/106/32 26/107/32
f 26/108/33 28/109/33 16/110/33
f 17/111/34 27/112/34 15/113/34
f 27/114/35 17/115/35 18/116/35 28/117/35
f 28/118/36 18/119/36 16/120/36
o cylinder
v 0 0 0
v 0 0.75 0
v -0.11958857261409053 0 0.2887123539097771
v -0.11958857261409053 0.75 0.2887123539097771
v 0.19023794656522516 0 0.247922918841011
v 0.19023794656522516 0.75 0.247922918841011
v 0.30982651917931575 0 -0.040789435068766075
v 0.30982651917931575 0.75 -0.040789435068766075
v 0.11958857261409057 0 -0.2887123539097771
v 0.11958857261409057 0.75 -0.2887123539097771
v -0.19023794656522514 0 -0.2479229188410111
v -0.19023794656522514 0.75 -0.2479229188410111
v -0.3098265191793157 0 0.04078943506876617
v -0.3098265191793157 0.75 0.04078943506876617
vt 0.27063125 0.921875
vt 0.135315625 1
vt 0.135315625 0.84375
vt 0.3125 0.0625
vt 0.46875 0.0625
vt 0.46875 0.4375
vt 0.3125 0.4375
vt 0.354065625 0.4375
vt 0.48938125 0.515625
vt 0.354065625 0.59375
vt 0.27063125 0.765625
vt 0.27063125 0.921875
vt 0.135315625 0.84375
vt 0.5 0.625
vt 0.65625 0.625
vt 0.65625 1
vt 0.5 1
vt 0.48938125 0.515625
vt 0.48938125 0.671875
vt 0.354065625 0.59375
vt 0.135315625 0.6875
vt 0.27063125 0.765625
vt 0.135315625 0.84375
vt 0.15625 0.0625
vt 0.3125 0.0625
vt 0.3125 0.4375
vt 0.15625 0.4375
vt 0.48938125 0.671875
vt 0.354065625 0.75
vt 0.354065625 0.59375
vt 0 0.765625
vt 0.135315625 0.6875
vt 0.135315625 0.84375
vt 0.5 0.25
vt 0.65625 0.25
vt 0.65625 0.625
vt 0.5 0.625
vt 0.354065625 0.75
vt 0.21875 0.671875
vt 0.354065625 0.59375
vt 0 0.921875
vt 0 0.765625
vt 0.135315625 0.84375
vt 0 0.3125
vt 0.15625 0.3125
vt 0.15625 0.6875
vt 0 0.6875
vt 0.21875 0.671875
vt 0.21875 0.515625
vt 0.354065625 0.59375
vt 0.135315625 1
vt 0 0.921875
vt 0.135315625 0.84375
vt 0.65625 0.625
vt 0.8125 0.625
vt 0.8125 1
vt 0.65625 1
vt 0.21875 0.515625
vt 0.354065625 0.4375
vt 0.354065625 0.59375
vn 0 -1 0
vn 0.13052619222005155 0 0.9914448613738106
vn 0 1 0
vn 0 -1 0
vn 0.9238795325112868 0 0.38268343236509
vn 0 1 0
vn 0 -1 0
vn 0.7933533402912354 0 -0.6087614290087205
vn 0 1 0
vn 0 -1 0
vn -0.13052619222005118 0 -0.9914448613738105
vn 0 1 0
vn 0 -1 0
vn -0.9238795325112867 0 -0.3826834323650897
vn 0 1 0
vn 0 -1 0
vn -0.7933533402912352 0 0.6087614290087208
vn 0 1 0
usemtl m_1
f 33/121/37 31/122/37 29/123/37
f 31/124/38 33/125/38 34/126/38 32/127/38
f 32/128/39 34/129/39 30/130/39
f 35/131/40 33/132/40 29/133/40
f 33/134/41 35/135/41 36/136/41 34/137/41
f 34/138/42 36/139/42 30/140/42
f 37/141/43 35/142/43 29/143/43
f 35/144/44 37/145/44 38/146/44 36/147/44
f 36/148/45 38/149/45 30/150/45
f 39/151/46 37/152/46 29/153/46
f 37/154/47 39/155/47 40/156/47 38/157/47
f 38/158/48 40/159/48 30/160/48
f 41/161/49 39/162/49 29/163/49
f 39/164/50 41/165/50 42/166/50 40/167/50
f 40/168/51 42/169/51 30/170/51
f 31/171/52 41/172/52 29/173/52
f 41/174/53 31/175/53 32/176/53 42/177/53
f 42/178/54 32/179/54 30/180/54
o cube
v 1.34375 0.4375 -0.125
v 1.34375 0.4375 -0.1875
v 1.34375 -0.25 -0.125
v 1.34375 -0.25 -0.1875
v 1.28125 0.4375 -0.1875
v 1.28125 0.4375 -0.125
v 1.28125 -0.25 -0.1875
v 1.28125 -0.25 -0.125
vt 0 1
vt 0.015625 1
vt 0.015625 0.828125
vt 0 0.828125
vt 0 1
vt 0.0078125 1
vt 0.0078125 0.9140625
vt 0 0.9140625
vt 0 1
vt 0.015625 1
vt 0.015625 0.828125
vt 0 0.828125
vt 0 1
vt 0.015625 1
vt 0.015625 0.828125
vt 0 0.828125
vt 0 1
vt 0.0078125 1
vt 0.0078125 0.9921875
vt 0 0.9921875
vt 0 1
vt 0.0078125 1
vt 0.0078125 0.9921875
vt 0 0.9921875
vn 0 0 -1
vn 1 0 0
vn 0 0 1
vn -1 0 0
vn 0 1 0
vn 0 -1 0
usemtl m_4
f 46/184/55 49/183/55 47/182/55 44/181/55
usemtl none
f 45/188/56 46/187/56 44/186/56 43/185/56
usemtl m_2
f 50/192/57 45/191/57 43/190/57 48/189/57
usemtl m_4
f 49/196/58 50/195/58 48/194/58 47/193/58
usemtl none
f 48/200/59 43/199/59 44/198/59 47/197/59
f 49/204/60 46/203/60 45/202/60 50/201/60
o cube
v 1.34375 0.4375 0.203125
v 1.34375 0.4375 0.140625
v 1.34375 -0.25 0.203125
v 1.34375 -0.25 0.140625
v 1.28125 0.4375 0.140625
v 1.28125 0.4375 0.203125
v 1.28125 -0.25 0.140625
v 1.28125 -0.25 0.203125
vt 0 1
vt 0.015625 1
vt 0.015625 0.828125
vt 0 0.828125
vt 0 1
vt 0.0078125 1
vt 0.0078125 0.9140625
vt 0 0.9140625
vt 0 1
vt 0.015625 1
vt 0.015625 0.828125
vt 0 0.828125
vt 0 1
vt 0.015625 1
vt 0.015625 0.828125
vt 0 0.828125
vt 0 1
vt 0.0078125 1
vt 0.0078125 0.9921875
vt 0 0.9921875
vt 0 1
vt 0.0078125 1
vt 0.0078125 0.9921875
vt 0 0.9921875
vn 0 0 -1
vn 1 0 0
vn 0 0 1
vn -1 0 0
vn 0 1 0
vn 0 -1 0
usemtl m_4
f 54/208/61 57/207/61 55/206/61 52/205/61
usemtl none
f 53/212/62 54/211/62 52/210/62 51/209/62
usemtl m_4
f 58/216/63 53/215/63 51/214/63 56/213/63
f 57/220/64 58/219/64 56/218/64 55/217/64
usemtl none
f 56/224/65 51/223/65 52/222/65 55/221/65
f 57/228/66 54/227/66 53/226/66 58/225/66
o cube
v 1.34375 0.5000000000000001 -0.1875
v 1.34375 0.43750000000000006 -0.1875
v 1.34375 0.5 0.203125
v 1.34375 0.4375 0.203125
v 1.28125 0.43750000000000006 -0.1875
v 1.28125 0.5000000000000001 -0.1875
v 1.28125 0.4375 0.203125
v 1.28125 0.5 0.203125
vt 0 1
vt 0.0625 1
vt 0.0625 0.625
vt 0 0.625
vt 0.0625 1
vt 0.125 1
vt 0.125 0.625
vt 0.0625 0.625
vt 0.125 1
vt 0.1875 1
vt 0.1875 0.625
vt 0.125 0.625
vt 0.1875 1
vt 0.25 1
vt 0.25 0.625
vt 0.1875 0.625
vt 0.3125 0.9375
vt 0.25 0.9375
vt 0.25 1
vt 0.3125 1
vt 0.3125 0.9375
vt 0.25 0.9375
vt 0.25 0.875
vt 0.3125 0.875
vn 0 -1 -2.220446049250313e-16
vn 1 0 0
vn 0 1 2.220446049250313e-16
vn -1 0 0
vn 0 2.220446049250313e-16 -1
vn 0 -2.220446049250313e-16 1
usemtl m_4
f 62/232/67 65/231/67 63/230/67 60/229/67
f 61/236/68 62/235/68 60/234/68 59/233/68
f 66/240/69 61/239/69 59/238/69 64/237/69
f 65/244/70 66/243/70 64/242/70 63/241/70
f 64/248/71 59/247/71 60/246/71 63/245/71
f 65/252/72 62/251/72 61/250/72 66/249/72
o cube
v -1.2875 0.6875 0.9125000000000001
v -1.2875 0.6875 -0.875
v -1.2875 0.0625 0.9125000000000001
v -1.2875 0.0625 -0.875
v -1.35 0.6875 -0.875
v -1.35 0.6875 0.9125000000000001
v -1.35 0.0625 -0.875
v -1.35 0.0625 0.9125000000000001
vt 0 1
vt 0.0078125 1
vt 0.0078125 0.921875
vt 0 0.921875
vt 0 1
vt 1 1
vt 1 0.375
vt 0 0.375
vt 0 1
vt 0.0078125 1
vt 0.0078125 0.921875
vt 0 0.921875
vt 0 1
vt 0.125 1
vt 0.125 0.921875
vt 0 0.921875
vt 0 1
vt 0.0078125 1
vt 0.0078125 0.875
vt 0 0.875
vt 0 1
vt 0.0078125 1
vt 0.0078125 0.875
vt 0 0.875
vn 0 0 -1
vn 1 0 0
vn 0 0 1
vn -1 0 0
vn 0 1 0
vn 0 -1 0
usemtl none
f 70/256/73 73/255/73 71/254/73 68/253/73
usemtl m_2
f 69/260/74 70/259/74 68/258/74 67/257/74
usemtl none
f 74/264/75 69/263/75 67/262/75 72/261/75
f 73/268/76 74/267/76 72/266/76 71/265/76
f 72/272/77 67/271/77 68/270/77 71/269/77
f 73/276/78 70/275/78 69/274/78 74/273/78
o cube
v 1.4 0.6875 0.9125000000000001
v 1.4 0.6875 -0.875
v 1.4 0.0625 0.9125000000000001
v 1.4 0.0625 -0.875
v 1.3375 0.6875 -0.875
v 1.3375 0.6875 0.9125000000000001
v 1.3375 0.0625 -0.875
v 1.3375 0.0625 0.9125000000000001
vt 0.03125 0.6875
vt 0.046875 0.6875
vt 0.046875 0.53125
vt 0.03125 0.53125
vt 0 1
vt 0.453125 1
vt 0.453125 0.84375
vt 0 0.84375
vt 0.046875 0.6875
vt 0.0625 0.6875
vt 0.0625 0.53125
vt 0.046875 0.53125
vt 0 0.84375
vt 0.453125 0.84375
vt 0.453125 0.6875
vt 0 0.6875
vt 0.015625 0.234375
vt 0 0.234375
vt 0 0.6875
vt 0.015625 0.6875
vt 0.03125 0.6875
vt 0.015625 0.6875
vt 0.015625 0.234375
vt 0.03125 0.234375
vn 0 0 -1
vn 1 0 0
vn 0 0 1
vn -1 0 0
vn 0 1 0
vn 0 -1 0
usemtl m_5
f 78/280/79 81/279/79 79/278/79 76/277/79
f 77/284/80 78/283/80 76/282/80 75/281/80
f 82/288/81 77/287/81 75/286/81 80/285/81
f 81/292/82 82/291/82 80/290/82 79/289/82
f 80/296/83 75/295/83 76/294/83 79/293/83
f 81/300/84 78/299/84 77/298/84 82/297/84
o cube
v -1.4339981809533004 0.6875 -0.6587577073724645
v 0.11402222831138364 0.6875 -1.552507707372465
v -1.4339981809533004 0.0625 -0.6587577073724645
v 0.11402222831138364 0.0625 -1.552507707372465
v 0.08277222831138364 0.6875 -1.6066342951089925
v -1.4652481809533004 0.6875 -0.7128842951089921
v 0.08277222831138364 0.0625 -1.6066342951089925
v -1.4652481809533004 0.0625 -0.7128842951089921
vt 0 1
vt 0.0078125 1
vt 0.0078125 0.921875
vt 0 0.921875
vt 0 1
vt 1 1
vt 1 0.375
vt 0 0.375
vt 0 1
vt 0.0078125 1
vt 0.0078125 0.921875
vt 0 0.921875
vt 0 1
vt 0.125 1
vt 0.125 0.921875
vt 0 0.921875
vt 0 1
vt 0.0078125 1
vt 0.0078125 0.875
vt 0 0.875
vt 0 1
vt 0.0078125 1
vt 0.0078125 0.875
vt 0 0.875
vn 0.8660254037844386 0 -0.5000000000000001
vn 0.5000000000000001 0 0.8660254037844386
vn -0.8660254037844386 0 0.5000000000000001
vn -0.5000000000000001 0 -0.8660254037844386
vn 0 1 0
vn 0 -1 0
usemtl none
f 86/304/85 89/303/85 87/302/85 84/301/85
usemtl m_2
f 85/308/86 86/307/86 84/306/86 83/305/86
usemtl none
f 90/312/87 85/311/87 83/310/87 88/309/87
f 89/316/88 90/315/88 88/314/88 87/313/88
f 88/320/89 83/319/89 84/318/89 87/317/89
f 89/324/90 86/323/90 85/322/90 90/321/90
o cube
v -1.4902481809533001 0.6875 0.7561855652982143
v 0.05777222831138429 0.6875 1.649935565298214
v -1.4902481809533001 0.0625 0.7561855652982143
v 0.05777222831138429 0.0625 1.649935565298214
v 0.08902222831138429 0.6875 1.5958089775616866
v -1.4589981809533001 0.6875 0.702058977561687
v 0.08902222831138429 0.0625 1.5958089775616866
v -1.4589981809533001 0.0625 0.702058977561687
vt 0.03125 0.6875
vt 0.046875 0.6875
vt 0.046875 0.53125
vt 0.03125 0.53125
vt 0 1
vt 0.453125 1
vt 0.453125 0.84375
vt 0 0.84375
vt 0.046875 0.6875
vt 0.0625 0.6875
vt 0.0625 0.53125
vt 0.046875 0.53125
vt 0 0.84375
vt 0.453125 0.84375
vt 0.453125 0.6875
vt 0 0.6875
vt 0.015625 0.234375
vt 0 0.234375
vt 0 0.6875
vt 0.015625 0.6875
vt 0.03125 0.6875
vt 0.015625 0.6875
vt 0.015625 0.234375
vt 0.03125 0.234375
vn 0.8660254037844388 0 0.4999999999999998
vn -0.4999999999999998 0 0.8660254037844388
vn -0.8660254037844388 0 -0.4999999999999998
vn 0.4999999999999998 0 -0.8660254037844388
vn 0 1 0
vn 0 -1 0
usemtl m_2
f 94/328/91 97/327/91 95/326/91 92/325/91
f 93/332/92 94/331/92 92/330/92 91/329/92
f 98/336/93 93/335/93 91/334/93 96/333/93
f 97/340/94 98/339/94 96/338/94 95/337/94
f 96/344/95 91/343/95 92/342/95 95/341/95
f 97/348/96 94/347/96 93/346/96 98/345/96
o cube
v -0.1464981809533008 0.6875 -1.571257707372465
v 1.4015222283113835 0.6875 -0.6775077073724654
v -0.1464981809533008 0.0625 -1.571257707372465
v 1.4015222283113835 0.0625 -0.6775077073724654
v 1.4327722283113835 0.6875 -0.7316342951089927
v -0.1152481809533008 0.6875 -1.6253842951089923
v 1.4327722283113835 0.0625 -0.7316342951089927
v -0.1152481809533008 0.0625 -1.6253842951089923
vt 0 1
vt 0.0078125 1
vt 0.0078125 0.921875
vt 0 0.921875
vt 0 1
vt 1 1
vt 1 0.375
vt 0 0.375
vt 0 1
vt 0.0078125 1
vt 0.0078125 0.921875
vt 0 0.921875
vt 0 1
vt 0.125 1
vt 0.125 0.921875
vt 0 0.921875
vt 0 1
vt 0.0078125 1
vt 0.0078125 0.875
vt 0 0.875
vt 0 1
vt 0.0078125 1
vt 0.0078125 0.875
vt 0 0.875
vn 0.8660254037844388 0 0.4999999999999998
vn -0.4999999999999998 0 0.8660254037844388
vn -0.8660254037844388 0 -0.4999999999999998
vn 0.4999999999999998 0 -0.8660254037844388
vn 0 1 0
vn 0 -1 0
usemtl none
f 102/352/97 105/351/97 103/350/97 100/349/97
usemtl m_2
f 101/356/98 102/355/98 100/354/98 99/353/98
usemtl none
f 106/360/99 101/359/99 99/358/99 104/357/99
f 105/364/100 106/363/100 104/362/100 103/361/100
f 104/368/101 99/367/101 100/366/101 103/365/101
f 105/372/102 102/371/102 101/370/102 106/369/102
o cube
v -0.09024818095330023 0.6875 1.668685565298214
v 1.4577722283113839 0.6875 0.7749355652982138
v -0.09024818095330023 0.0625 1.668685565298214
v 1.4577722283113839 0.0625 0.7749355652982138
v 1.4265222283113839 0.6875 0.7208089775616865
v -0.12149818095330023 0.6875 1.6145589775616869
v 1.4265222283113839 0.0625 0.7208089775616865
v -0.12149818095330023 0.0625 1.6145589775616869
vt 0.03125 0.6875
vt 0.046875 0.6875
vt 0.046875 0.53125
vt 0.03125 0.53125
vt 0 1
vt 0.453125 1
vt 0.453125 0.84375
vt 0 0.84375
vt 0.046875 0.6875
vt 0.0625 0.6875
vt 0.0625 0.53125
vt 0.046875 0.53125
vt 0 0.84375
vt 0.453125 0.84375
vt 0.453125 0.6875
vt 0 0.6875
vt 0.015625 0.234375
vt 0 0.234375
vt 0 0.6875
vt 0.015625 0.6875
vt 0.03125 0.6875
vt 0.015625 0.6875
vt 0.015625 0.234375
vt 0.03125 0.234375
vn 0.8660254037844386 0 -0.5000000000000001
vn 0.5000000000000001 0 0.8660254037844386
vn -0.8660254037844386 0 0.5000000000000001
vn -0.5000000000000001 0 -0.8660254037844386
vn 0 1 0
vn 0 -1 0
usemtl none
f 110/376/103 113/375/103 111/374/103 108/373/103
f 109/380/104 110/379/104 108/378/104 107/377/104
f 114/384/105 109/383/105 107/382/105 112/381/105
usemtl m_2
f 113/388/106 114/387/106 112/386/106 111/385/106
usemtl none
f 112/392/107 107/391/107 108/390/107 111/389/107
f 113/396/108 110/395/108 109/394/108 114/393/108